<?xml version="1.0" encoding="UTF-8" standalone="no"?>
<!-- Created with Inkscape (http://www.inkscape.org/) -->

<svg
   width="49.397175mm"
   height="32.346443mm"
   viewBox="0 0 49.397173 32.346443"
   version="1.1"
   id="svg5"
   xml:space="preserve"
   inkscape:version="1.2.2 (732a01da63, 2022-12-09)"
   sodipodi:docname="small.svg"
   inkscape:export-filename="..\..\..\Downloads\small.png"
   inkscape:export-xdpi="96"
   inkscape:export-ydpi="96"
   xmlns:inkscape="http://www.inkscape.org/namespaces/inkscape"
   xmlns:sodipodi="http://sodipodi.sourceforge.net/DTD/sodipodi-0.dtd"
   xmlns:xlink="http://www.w3.org/1999/xlink"
   xmlns="http://www.w3.org/2000/svg"
   xmlns:svg="http://www.w3.org/2000/svg"><sodipodi:namedview
     id="namedview7"
     pagecolor="#ffffff"
     bordercolor="#000000"
     borderopacity="0.25"
     inkscape:showpageshadow="2"
     inkscape:pageopacity="0.0"
     inkscape:pagecheckerboard="0"
     inkscape:deskcolor="#d1d1d1"
     inkscape:document-units="mm"
     showgrid="false"
     inkscape:zoom="1.9999999"
     inkscape:cx="-139.75001"
     inkscape:cy="17.250001"
     inkscape:window-width="2560"
     inkscape:window-height="1351"
     inkscape:window-x="-9"
     inkscape:window-y="178"
     inkscape:window-maximized="1"
     inkscape:current-layer="text25585" /><defs
     id="defs2"><linearGradient
       inkscape:collect="always"
       id="linearGradient17668"><stop
         style="stop-color:#ffffff;stop-opacity:1;"
         offset="0.23058823"
         id="stop17664" /><stop
         style="stop-color:#bbbeff;stop-opacity:1;"
         offset="0.722112"
         id="stop17672" /></linearGradient><linearGradient
       inkscape:collect="always"
       xlink:href="#linearGradient17668"
       id="linearGradient28593"
       x1="97.304352"
       y1="102.72022"
       x2="97.304352"
       y2="119.35886"
       gradientUnits="userSpaceOnUse" /></defs><g
     inkscape:label="Layer 1"
     inkscape:groupmode="layer"
     id="layer1"
     transform="translate(-94.104218,-69.346184)"><g
       aria-label="YouTube"
       id="text456"
       style="font-size:15.118px;font-family:'Varela Round';-inkscape-font-specification:'Varela Round';stroke-width:1.90463;stroke-linecap:round;stroke-linejoin:round"><g
         aria-label="Image Guesser"
         id="text25585"
         style="font-size:3.99997px;font-family:'Bauhaus 93';-inkscape-font-specification:'Bauhaus 93, ';fill:#ff0021;stroke-width:0.4"
         transform="translate(0.02338608)"><g
           style="fill:#ffaff7;fill-opacity:1"
           id="g5577"
           transform="matrix(0.00919744,-0.00184874,0.00184874,0.00919744,112.13577,154.7119)" /><path
           style="font-size:3.99997px;font-family:'Bauhaus 93';-inkscape-font-specification:'Bauhaus 93, ';fill:#a2aeff;fill-opacity:1;stroke-width:0.025;stroke-linecap:round;stroke-linejoin:round"
           sodipodi:type="inkscape:offset"
           inkscape:radius="0.79161584"
           inkscape:original="M 95.4375 103.91602 L 92.853516 104.10742 L 92.119141 105.02734 L 90.763672 105.12891 C 90.526695 105.14641 90.330078 105.24452 90.173828 105.42578 C 90.017588 105.60704 89.947284 105.81771 89.964844 106.05469 L 90.347656 111.22461 C 90.365206 111.46159 90.465227 111.6582 90.646484 111.81445 C 90.827745 111.97073 91.036495 112.03908 91.273438 112.02148 L 98.167969 111.51172 C 98.404949 111.49422 98.601566 111.39415 98.757812 111.21289 C 98.776202 111.19159 98.792614 111.17054 98.808594 111.14844 C 99.048265 111.25621 99.304483 111.332 99.576172 111.37695 C 99.998665 111.44685 100.40852 111.43278 100.80664 111.33398 C 101.20475 111.23508 101.56441 111.0712 101.88477 110.8418 C 102.20511 110.61241 102.47545 110.32552 102.69727 109.98047 C 102.91907 109.63539 103.06487 109.2506 103.13477 108.82812 C 103.20467 108.40564 103.1907 107.99578 103.0918 107.59766 C 102.9929 107.19955 102.82899 106.83989 102.59961 106.51953 C 102.37021 106.19918 102.08334 105.92884 101.73828 105.70703 C 101.39322 105.48523 101.00843 105.33943 100.58594 105.26953 C 100.16345 105.19963 99.753582 105.2136 99.355469 105.3125 C 99.084342 105.3798 98.830765 105.4776 98.595703 105.60547 L 98.582031 105.41602 C 98.564481 105.17904 98.464463 104.98241 98.283203 104.82617 C 98.10195 104.66996 97.893223 104.59966 97.65625 104.61719 L 96.298828 104.71875 L 95.4375 103.91602 z "
           xlink:href="#path27622"
           id="path27627"
           d="m 95.378906,103.12695 -2.583984,0.19141 a 0.79169501,0.79169501 0 0 0 -0.560547,0.29492 l -0.519531,0.65039 -1.009766,0.0762 c -0.421619,0.0311 -0.852415,0.24535 -1.130859,0.56836 -0.277611,0.32207 -0.430059,0.77834 -0.398438,1.20508 l 0.382813,5.16992 c 0.03153,0.42575 0.249397,0.85422 0.570312,1.13086 0.322457,0.27802 0.780945,0.42785 1.203125,0.39649 l 6.894531,-0.50977 c 0.237651,-0.0175 0.41842,-0.1989 0.63086,-0.31836 0.194991,0.0643 0.385258,0.14194 0.589844,0.17578 0.520709,0.0862 1.046444,0.0685 1.550784,-0.0566 0.48842,-0.12133 0.94437,-0.32645 1.34765,-0.61523 0.40296,-0.28855 0.74549,-0.65487 1.01758,-1.07813 0.28121,-0.4375 0.46653,-0.93016 0.55274,-1.45117 0.0861,-0.52058 0.0687,-1.04622 -0.0566,-1.55078 -0.12135,-0.48846 -0.32651,-0.94441 -0.61524,-1.34766 -0.28854,-0.40294 -0.65483,-0.74547 -1.07812,-1.01757 -0.43751,-0.28122 -0.93016,-0.46654 -1.45118,-0.55274 -0.52059,-0.0861 -1.046214,-0.0687 -1.550778,0.0566 -0.05987,0.0149 -0.111071,0.049 -0.169921,0.0664 -0.08218,-0.12311 -0.08423,-0.2907 -0.19336,-0.38477 -0.319943,-0.27574 -0.776763,-0.42998 -1.203125,-0.39844 l -1.011718,0.0762 -0.609376,-0.56836 a 0.79169501,0.79169501 0 0 0 -0.597656,-0.20899 z"
           inkscape:href="#path27622"
           transform="matrix(3.3381504,0,0,3.3381504,-203.58761,-274.89966)" /><path
           style="font-size:3.99997px;font-family:'Bauhaus 93';-inkscape-font-specification:'Bauhaus 93, ';fill:url(#linearGradient28593);fill-opacity:1;stroke-width:0.025;stroke-linecap:round;stroke-linejoin:round"
           sodipodi:type="inkscape:offset"
           inkscape:radius="0.53430533"
           inkscape:original="M 95.4375 103.91602 L 92.853516 104.10742 L 92.119141 105.02734 L 90.763672 105.12891 C 90.526695 105.14641 90.330078 105.24452 90.173828 105.42578 C 90.017588 105.60704 89.947284 105.81771 89.964844 106.05469 L 90.347656 111.22461 C 90.365206 111.46159 90.465227 111.6582 90.646484 111.81445 C 90.827745 111.97073 91.036495 112.03908 91.273438 112.02148 L 98.167969 111.51172 C 98.404949 111.49422 98.601566 111.39415 98.757812 111.21289 C 98.776202 111.19159 98.792614 111.17054 98.808594 111.14844 C 99.048265 111.25621 99.304483 111.332 99.576172 111.37695 C 99.998665 111.44685 100.40852 111.43278 100.80664 111.33398 C 101.20475 111.23508 101.56441 111.0712 101.88477 110.8418 C 102.20511 110.61241 102.47545 110.32552 102.69727 109.98047 C 102.91907 109.63539 103.06487 109.2506 103.13477 108.82812 C 103.20467 108.40564 103.1907 107.99578 103.0918 107.59766 C 102.9929 107.19955 102.82899 106.83989 102.59961 106.51953 C 102.37021 106.19918 102.08334 105.92884 101.73828 105.70703 C 101.39322 105.48523 101.00843 105.33943 100.58594 105.26953 C 100.16345 105.19963 99.753582 105.2136 99.355469 105.3125 C 99.084342 105.3798 98.830765 105.4776 98.595703 105.60547 L 98.582031 105.41602 C 98.564481 105.17904 98.464463 104.98241 98.283203 104.82617 C 98.10195 104.66996 97.893223 104.59966 97.65625 104.61719 L 96.298828 104.71875 L 95.4375 103.91602 z "
           xlink:href="#path27622"
           id="path27625"
           d="m 95.398438,103.38281 -2.583985,0.19141 a 0.53435876,0.53435876 0 0 0 -0.378906,0.19922 l -0.587891,0.73828 -1.123047,0.084 c -0.361602,0.0267 -0.716352,0.20353 -0.955078,0.48047 -0.238159,0.2763 -0.364941,0.65252 -0.33789,1.01758 l 0.382812,5.16992 c 0.02698,0.36439 0.206902,0.71757 0.482422,0.95508 0.276562,0.23845 0.653655,0.36282 1.015625,0.33594 l 6.894531,-0.50977 c 0.248175,-0.0183 0.445661,-0.18594 0.650391,-0.32812 0.206456,0.0735 0.410596,0.15106 0.630859,0.1875 0.488785,0.0809 0.977459,0.0658 1.447269,-0.0508 a 0.53435876,0.53435876 0 0 0 0,-0.002 c 0.45906,-0.11404 0.88343,-0.30669 1.25976,-0.57617 0.3761,-0.26932 0.69542,-0.60802 0.95117,-1.00586 0.2619,-0.40746 0.43473,-0.86453 0.51563,-1.35351 0.0808,-0.4887 0.064,-0.9773 -0.0527,-1.44727 -0.11405,-0.45909 -0.30674,-0.88346 -0.57618,-1.25977 -0.26932,-0.37609 -0.60799,-0.69541 -1.00586,-0.95117 -0.40745,-0.2619 -0.86452,-0.43472 -1.35351,-0.51562 -0.48871,-0.0809 -0.977305,-0.064 -1.447268,0.0527 v -0.002 c -0.119852,0.0298 -0.224931,0.0904 -0.339843,0.13086 -0.08377,-0.17363 -0.109042,-0.37709 -0.253907,-0.50195 -0.274862,-0.23689 -0.650822,-0.36488 -1.015624,-0.3379 l -1.125,0.084 -0.689454,-0.64258 a 0.53435876,0.53435876 0 0 0 -0.404296,-0.14258 z"
           transform="matrix(3.3381504,0,0,3.3381504,-203.58608,-274.90012)"
           inkscape:href="#path27622" /><path
           id="path26559"
           style="font-size:3.99997px;font-family:'Bauhaus 93';-inkscape-font-specification:'Bauhaus 93, ';fill:#ffffff;fill-opacity:1;stroke-width:0.0834538;stroke-linecap:round;stroke-linejoin:round"
           d="m 130.22734,78.384842 c -0.43056,-4.83e-4 -0.82686,0.02204 -1.10576,0.07074 -2.44367,0.426092 -4.69669,2.021177 -5.84614,4.138362 -0.71156,1.310591 -1.06758,2.874026 -1.00915,4.426447 0.0334,0.87263 0.12718,1.404847 0.39673,2.216673 0.44538,1.341051 1.37829,2.727983 2.44439,3.638102 1.3108,1.119009 2.95971,1.797457 4.7542,1.954467 1.46882,0.128514 2.93122,-0.140269 4.21599,-0.77454 2.05092,-1.012511 3.54343,-2.695641 4.20218,-4.738679 0.79859,-2.476726 0.57481,-4.827489 -0.65551,-6.875998 -1.24286,-2.069376 -3.00593,-3.345114 -5.35622,-3.874432 -0.51178,-0.115266 -1.32314,-0.180326 -2.04071,-0.181127 z" /><path
           d="m 129.4357,92.719247 q 0.53524,0.08863 0.96603,-0.219884 0.43065,-0.308445 0.51925,-0.843673 0.0889,-0.53522 -0.22,-0.965957 -0.30844,-0.430653 -0.84372,-0.519286 -0.53519,-0.08863 -0.96591,0.219849 -0.43065,0.308445 -0.51928,0.843675 -0.0885,0.535219 0.21998,0.965957 0.30844,0.430651 0.84368,0.519273 z m -0.26806,-4.076976 1.88612,0.312083 q 0.13921,-0.841057 0.41046,-1.293756 0.27106,-0.452669 1.30252,-1.146155 0.77232,-0.553041 1.25373,-1.088753 0.48147,-0.535677 0.62044,-1.376864 0.236,-1.427316 -0.68233,-2.364883 -0.91849,-0.937536 -2.34585,-1.173683 -1.45279,-0.240381 -2.48414,0.374546 -1.03137,0.614946 -1.56529,1.626387 l 1.57263,0.940931 q 0.20263,-0.437991 0.7379,-0.89915 0.5346,-0.461452 1.45216,-0.309647 0.81558,0.135025 1.14959,0.648557 0.33398,0.513534 0.24536,1.048779 -0.0845,0.509723 -0.46404,0.905164 -0.37965,0.395439 -0.90171,0.701852 -1.28595,0.80846 -1.62514,1.276045 -0.33938,0.46754 -0.56275,1.81845 z m -0.35565,8.163456 q -2.11547,-0.349987 -3.84331,-1.460621 -1.72779,-1.110722 -2.87642,-2.714811 -1.14862,-1.604074 -1.64364,-3.59754 -0.49501,-1.993434 -0.14482,-4.108959 0.35,-2.115484 1.46061,-3.84332 1.11073,-1.727779 2.71482,-2.87642 1.60407,-1.148611 3.59751,-1.643623 1.99345,-0.495054 4.10897,-0.145001 2.11549,0.350018 3.84331,1.460621 1.72779,1.110726 2.87646,2.714811 1.14859,1.604075 1.6436,3.597512 0.49505,1.993476 0.14483,4.108989 -0.35,2.115482 -1.46061,3.84332 -1.11074,1.727782 -2.71478,2.876393 -1.60411,1.148638 -3.59752,1.643661 -1.99348,0.495012 -4.10901,0.144985 z m 0.33737,-2.039022 q 3.41538,0.565102 6.17796,-1.413105 2.76256,-1.978178 3.32768,-5.393573 0.56508,-3.415366 -1.41311,-6.177932 -1.97819,-2.762579 -5.39354,-3.327668 -3.4154,-0.565105 -6.17798,1.413071 -2.76259,1.978212 -3.32768,5.393577 -0.56508,3.415395 1.41308,6.177962 1.97822,2.762576 5.39359,3.327668 z m 1.34948,-8.156139 z"
           id="path7613-1"
           style="font-size:3.99997px;font-family:'Bauhaus 93';-inkscape-font-specification:'Bauhaus 93, ';fill:#00149a;fill-opacity:0.79768789;stroke-width:0.0103338;stroke-linecap:round;stroke-linejoin:round" /><path
           id="path26550"
           style="font-size:3.99997px;font-family:'Bauhaus 93';-inkscape-font-specification:'Bauhaus 93, ';fill:#ffffff;fill-opacity:1;stroke-width:0.0834538;stroke-linecap:round;stroke-linejoin:round"
           d="m 113.99458,74.862973 -3.04468,0.227697 -3.0447,0.225992 -1.14369,1.462831 c -0.62889,0.804557 -1.17255,1.494247 -1.20926,1.533559 -0.0475,0.05087 -0.89826,0.13456 -2.95326,0.288084 -1.58748,0.118602 -2.89467,0.222086 -2.903239,0.231165 -0.0087,0.009 0.267051,3.817856 0.612389,8.463029 0.34533,4.645176 0.62886,8.51181 0.62964,8.59241 10e-4,0.136597 0.0157,0.144744 0.20873,0.122483 0.11387,-0.01299 5.27456,-0.396876 11.46805,-0.853895 6.19351,-0.45702 11.2686,-0.839029 11.2783,-0.848719 0.0234,-0.02237 -1.24546,-17.146837 -1.27136,-17.17274 -0.01,-0.01075 -1.32249,0.07915 -2.91531,0.198387 l -2.89635,0.215644 -0.38639,-0.374333 c -0.21265,-0.205799 -0.84596,-0.809286 -1.40763,-1.342081 z" /><path
           d="m 112.232,93.071916 q 2.69676,-0.199888 4.44458,-2.227494 1.74782,-2.027606 1.54794,-4.72435 -0.19996,-2.696758 -2.22749,-4.444568 -2.02765,-1.747808 -4.72438,-1.54792 -2.69675,0.199856 -4.44455,2.227484 -1.74781,2.027637 -1.54795,4.724395 0.1999,2.696714 2.22748,4.444536 2.02761,1.74782 4.72437,1.54796 z m -0.21331,-2.876538 q -1.51018,0.11193 -2.63018,-0.853541 -1.12004,-0.96543 -1.23204,-2.475589 -0.11194,-1.510186 0.85355,-2.630209 0.96543,-1.120006 2.47557,-1.232028 1.51021,-0.11193 2.6302,0.853516 1.12004,0.965469 1.23205,2.475618 0.11179,1.510157 -0.8535,2.630192 -0.96551,1.120023 -2.47561,1.232028 z m -10.9198,8.763223 q -1.18643,0.08797 -2.094047,-0.694376 -0.907596,-0.782378 -0.995466,-1.968977 L 96.730192,79.036109 q -0.08792,-1.186571 0.694404,-2.094188 0.782379,-0.9076 1.968979,-0.995466 l 4.530535,-0.335771 2.44757,-3.073727 8.62959,-0.639596 2.87397,2.679324 4.53055,-0.335802 q 1.18658,-0.08792 2.09415,0.694419 0.90761,0.782335 0.99547,1.968948 l 1.27918,17.259168 q 0.088,1.186559 -0.6944,2.094158 -0.78236,0.907617 -1.96897,0.995453 z m -0.21321,-2.876495 23.01215,-1.7056 -1.27917,-17.259139 -5.82493,0.43172 -2.83803,-2.681984 -6.11263,0.453034 -2.41162,3.071079 -5.824969,0.431722 z m 10.86649,-9.482393 z"
           id="path8360-8"
           style="font-size:3.99997px;font-family:'Bauhaus 93';-inkscape-font-specification:'Bauhaus 93, ';fill:#00149a;fill-opacity:1;stroke-width:0.0144221;stroke-linecap:round;stroke-linejoin:round" /></g></g></g></svg>
