<?xml version="1.0" encoding="UTF-8" standalone="no"?>
<!-- Created with Inkscape (http://www.inkscape.org/) -->

<svg
   width="169.03737mm"
   height="74.970245mm"
   viewBox="0 0 169.03737 74.970244"
   version="1.1"
   id="svg5"
   xml:space="preserve"
   inkscape:version="1.2.2 (732a01da63, 2022-12-09)"
   sodipodi:docname="imageguesser.svg"
   inkscape:export-filename="..\..\..\Downloads\imageguesser.png"
   inkscape:export-xdpi="96"
   inkscape:export-ydpi="96"
   xmlns:inkscape="http://www.inkscape.org/namespaces/inkscape"
   xmlns:sodipodi="http://sodipodi.sourceforge.net/DTD/sodipodi-0.dtd"
   xmlns:xlink="http://www.w3.org/1999/xlink"
   xmlns="http://www.w3.org/2000/svg"
   xmlns:svg="http://www.w3.org/2000/svg"><sodipodi:namedview
     id="namedview7"
     pagecolor="#ffffff"
     bordercolor="#000000"
     borderopacity="0.25"
     inkscape:showpageshadow="2"
     inkscape:pageopacity="0.0"
     inkscape:pagecheckerboard="0"
     inkscape:deskcolor="#d1d1d1"
     inkscape:document-units="mm"
     showgrid="false"
     inkscape:zoom="1.4142135"
     inkscape:cx="354.61407"
     inkscape:cy="170.05919"
     inkscape:window-width="2560"
     inkscape:window-height="1351"
     inkscape:window-x="-9"
     inkscape:window-y="178"
     inkscape:window-maximized="1"
     inkscape:current-layer="text25585" /><defs
     id="defs2"><linearGradient
       inkscape:collect="always"
       id="linearGradient17668"><stop
         style="stop-color:#ffffff;stop-opacity:1;"
         offset="0.23058823"
         id="stop17664" /><stop
         style="stop-color:#bbbeff;stop-opacity:1;"
         offset="0.722112"
         id="stop17672" /></linearGradient><linearGradient
       inkscape:collect="always"
       xlink:href="#linearGradient17668"
       id="linearGradient17670"
       x1="100.82766"
       y1="67.008575"
       x2="100.82766"
       y2="92.242615"
       gradientUnits="userSpaceOnUse"
       gradientTransform="matrix(5.4961026,0,0,5.4961026,-392.54456,-364.11867)" /></defs><g
     inkscape:label="Layer 1"
     inkscape:groupmode="layer"
     id="layer1"
     transform="translate(-87.33114,-6.0151544)"><g
       aria-label="YouTube"
       id="text456"
       style="font-size:15.118px;font-family:'Varela Round';-inkscape-font-specification:'Varela Round';stroke-width:1.90463;stroke-linecap:round;stroke-linejoin:round"><g
         aria-label="Image Guesser"
         id="text25585"
         style="font-size:3.99997px;font-family:'Bauhaus 93';-inkscape-font-specification:'Bauhaus 93, ';fill:#ff0021;stroke-width:0.4"
         transform="translate(0.02338608)"><path
           style="fill:#a2aeff;fill-opacity:1;stroke-width:0.00309566"
           sodipodi:type="inkscape:offset"
           inkscape:radius="0.3565256"
           inkscape:original="M 271.24414 196.08984 L 271.24219 196.0918 A 0.7475589 0.7475589 0 0 0 270.84766 196.17969 L 270.09961 196.58594 L 269.11914 196.25195 C 268.72858 196.11915 268.26261 196.14887 267.89062 196.33203 C 267.5197 196.51478 267.21025 196.86535 267.07617 197.25977 L 266.61133 198.62891 C 266.50316 198.57201 266.41315 198.48681 266.29688 198.44727 C 266.00998 198.34827 265.70703 198.29883 265.39844 198.29883 C 265.04855 198.29883 264.70035 198.3721 264.38672 198.52148 C 264.19279 198.61138 264.03801 198.76102 263.875 198.89844 C 263.8306 198.82424 263.83329 198.72759 263.77539 198.66992 C 263.58598 198.47974 263.28969 198.34375 263.02344 198.34375 C 262.86398 198.34375 262.72745 198.4611 262.57422 198.53906 C 262.56922 198.53706 262.5674 198.52964 262.5625 198.52734 C 262.26764 198.39372 261.94766 198.3418 261.61523 198.3418 C 261.32361 198.3418 261.034 198.39603 260.76367 198.49805 A 0.7475589 0.7475589 0 0 0 260.75781 198.5 C 260.48086 198.60696 260.23775 198.77978 260.0332 198.98828 C 259.944 198.88329 259.87677 198.75676 259.76367 198.68164 C 259.35391 198.40361 258.86302 198.29883 258.34375 198.29883 C 258.07538 198.29883 257.82749 198.32502 257.58984 198.38672 C 257.38166 198.43782 257.17879 198.5107 256.99023 198.62695 A 0.7475589 0.7475589 0 0 0 256.98047 198.63281 C 256.85109 198.71541 256.74609 198.8326 256.64258 198.94922 C 256.60398 198.90492 256.58587 198.84421 256.54297 198.80469 C 256.37611 198.64758 256.16974 198.52845 255.94922 198.45508 C 255.74155 198.38118 255.52383 198.34269 255.30664 198.3418 A 0.7475589 0.7475589 0 0 0 255.30273 198.3418 L 255.29688 198.3418 A 0.7475589 0.7475589 0 0 0 255.29492 198.3418 C 254.96954 198.3428 254.64307 198.41212 254.35352 198.5625 C 254.32362 198.5779 254.31376 198.61366 254.28516 198.63086 C 254.01786 198.45679 253.70372 198.3418 253.39258 198.3418 C 253.17832 198.3418 252.96754 198.3704 252.76562 198.4375 A 0.7475589 0.7475589 0 0 0 252.75781 198.43945 C 252.68541 198.46445 252.62132 198.50541 252.55273 198.53711 C 252.40107 198.46021 252.26565 198.34262 252.10742 198.3418 A 0.7475589 0.7475589 0 0 0 252.10352 198.3418 L 252.10156 198.3418 A 0.7475589 0.7475589 0 0 0 252.09766 198.3418 C 252.06116 198.34199 252.03327 198.38007 251.99609 198.38477 L 251.99609 198.1543 C 251.99609 197.88157 251.86831 197.56342 251.66992 197.36523 C 251.46742 197.16355 251.1531 197.04297 250.88086 197.04297 C 250.60509 197.04297 250.30149 197.16965 250.10742 197.35352 A 0.7475589 0.7475589 0 0 0 250.0918 197.36523 C 249.89383 197.5632 249.76758 197.88137 249.76758 198.1543 L 249.76758 202.31445 C 249.76758 202.59023 249.89089 202.89172 250.07812 203.08984 A 0.7475589 0.7475589 0 0 0 250.10742 203.12109 C 250.12842 203.14099 250.16801 203.13384 250.19141 203.15234 C 250.04208 203.46901 249.88364 203.78252 249.82227 204.13477 C 249.73397 204.64162 249.75565 205.16092 249.87695 205.66797 C 249.99854 206.17586 250.21582 206.64734 250.52344 207.05859 C 250.82216 207.45794 251.18582 207.79438 251.60352 208.05078 C 252.02133 208.30725 252.48429 208.479 252.97461 208.56445 C 253.47915 208.65235 253.99861 208.63352 254.50781 208.51172 C 254.84461 208.43122 255.12952 208.24642 255.42578 208.08398 C 255.65629 208.33555 255.90822 208.57102 256.21484 208.72656 A 0.7475589 0.7475589 0 0 0 256.21875 208.72852 C 256.6169 208.92748 257.06499 209.01758 257.53125 209.01758 C 257.93666 209.01758 258.33538 208.92625 258.69336 208.74805 L 258.69727 208.74609 C 259.03027 208.58172 259.32943 208.36012 259.58008 208.08984 C 259.68341 208.24453 259.78727 208.39958 259.93164 208.51172 C 260.11329 208.65287 260.32111 208.76023 260.53711 208.83008 A 0.7475589 0.7475589 0 0 0 260.5625 208.83984 C 260.77308 208.90004 260.99273 208.93164 261.21484 208.93164 C 261.41078 208.93164 261.60199 208.91463 261.79297 208.86523 A 0.7475589 0.7475589 0 0 0 261.8125 208.85938 C 261.92071 208.82827 262.0245 208.78202 262.12891 208.73633 C 262.29015 208.81863 262.44561 208.93164 262.60547 208.93164 C 262.85966 208.93164 263.16626 208.81781 263.36328 208.62109 A 0.7475589 0.7475589 0 0 0 263.36523 208.61914 C 263.42543 208.55884 263.41984 208.45865 263.46484 208.38086 C 263.62902 208.51674 263.78367 208.66586 263.97852 208.75586 C 264.30394 208.9061 264.66058 208.97461 265.02344 208.97461 C 265.36063 208.97461 265.68093 208.92917 265.98242 208.80859 C 266.22118 208.71309 266.44268 208.59407 266.63867 208.42773 C 266.67897 208.39423 266.70422 208.34268 266.74219 208.30664 C 266.75239 208.31684 266.75718 208.3317 266.76758 208.3418 A 0.7475589 0.7475589 0 0 0 266.78711 208.35938 C 266.98116 208.53435 267.20367 208.67117 267.44922 208.7832 A 0.7475589 0.7475589 0 0 0 267.4668 208.79102 C 267.78247 208.92548 268.11988 208.97461 268.47266 208.97461 C 268.71527 208.97461 268.95503 208.9525 269.19141 208.9043 A 0.7475589 0.7475589 0 0 0 269.20898 208.90039 C 269.4655 208.84219 269.70763 208.74583 269.92188 208.60938 A 0.7475589 0.7475589 0 0 0 269.93359 208.59766 C 270.01859 208.54096 270.07234 208.44278 270.14844 208.37109 C 270.33822 208.53809 270.55324 208.67253 270.79102 208.78125 A 0.7475589 0.7475589 0 0 0 270.80859 208.78906 C 271.12427 208.92352 271.46169 208.97266 271.81445 208.97266 C 272.05706 208.97266 272.29682 208.95054 272.5332 208.90234 A 0.7475589 0.7475589 0 0 0 272.55078 208.89844 C 272.80731 208.84024 273.04941 208.7439 273.26367 208.60742 A 0.7475589 0.7475589 0 0 0 273.27539 208.59766 C 273.40171 208.51346 273.49096 208.37822 273.5957 208.26172 C 273.79532 208.45806 274.01531 208.6356 274.27148 208.75391 C 274.59691 208.90417 274.95355 208.97266 275.31641 208.97266 C 275.6536 208.97266 275.97392 208.92724 276.27539 208.80664 C 276.47418 208.72714 276.65224 208.61615 276.82227 208.49023 C 276.84527 208.52163 276.83973 208.57246 276.86523 208.59961 A 0.7475589 0.7475589 0 0 0 276.89844 208.63281 C 277.08936 208.81217 277.38165 208.92969 277.64648 208.92969 C 277.91135 208.92969 278.21648 208.80269 278.40234 208.61719 A 0.7475589 0.7475589 0 0 0 278.41992 208.59961 C 278.59436 208.41393 278.7168 208.11786 278.7168 207.85352 L 278.71875 206.18555 C 278.71875 206.18542 278.72173 206.13045 278.73633 206.05078 C 278.74033 206.02608 278.74912 206.00517 278.76172 205.98047 C 278.76172 205.98047 278.76172 205.97852 278.76172 205.97852 C 278.76172 205.97852 278.76367 205.97852 278.76367 205.97852 C 278.76367 205.97852 278.76562 205.97656 278.76562 205.97656 C 279.0131 205.96656 279.30528 205.86233 279.48828 205.67969 A 0.7475589 0.7475589 0 0 0 279.49023 205.67773 C 279.67307 205.49462 279.80859 205.19963 279.80859 204.91992 C 279.80859 204.65305 279.66786 204.35481 279.48242 204.16992 C 279.29767 203.98461 278.99867 203.84375 278.73242 203.84375 C 278.52957 203.84375 278.32691 203.89355 278.14844 203.97656 C 278.12094 203.98896 278.09235 204.01139 278.06445 204.02539 C 277.91821 203.95789 277.78917 203.84375 277.64648 203.84375 C 277.38353 203.84375 277.07643 203.96741 276.88281 204.16016 C 276.84181 204.20116 276.85041 204.2727 276.81641 204.32227 C 276.61874 204.16971 276.41032 204.0264 276.17188 203.94531 C 275.97042 203.87581 275.75504 203.86157 275.54102 203.8418 L 276.67188 200.51953 C 276.80635 200.12406 276.77205 199.65938 276.58984 199.28906 C 276.40654 198.91698 276.0563 198.60966 275.66602 198.47656 L 275.66406 198.47656 L 274.68555 198.14258 L 274.33789 197.36523 A 0.7475589 0.7475589 0 0 0 273.89648 196.96289 L 271.44531 196.12891 A 0.7475589 0.7475589 0 0 0 271.24414 196.08984 z "
           xlink:href="#path13624"
           id="path13628"
           d="m 271.26367,195.73438 a 0.35656125,0.35656125 0 0 0 -0.01,0.004 c -0.19855,-0.009 -0.39911,0.0329 -0.57422,0.12695 a 0.35656125,0.35656125 0 0 0 -0.002,0.002 l -0.61132,0.33008 -0.83203,-0.28321 c -0.48774,-0.16584 -1.03782,-0.13087 -1.50196,0.0977 -0.46255,0.22789 -0.82698,0.64107 -0.99414,1.13281 l -0.32812,0.96485 c -0.32437,-0.11147 -0.66635,-0.16797 -1.01172,-0.16797 -0.39967,0 -0.79881,0.0838 -1.16406,0.25781 -0.11451,0.0534 -0.16956,0.12028 -0.25586,0.18555 -0.25619,-0.23808 -0.58823,-0.39844 -0.95508,-0.39844 -0.26244,0 -0.41016,0.10255 -0.51758,0.17578 -0.29211,-0.10029 -0.58973,-0.17773 -0.89063,-0.17773 -0.33375,0 -0.66236,0.0621 -0.9707,0.17773 a 0.35656125,0.35656125 0 0 0 -0.0156,0.006 c -0.20911,0.0808 -0.36442,0.22865 -0.53516,0.35937 -0.0473,-0.0538 -0.0509,-0.0871 -0.13086,-0.14062 -0.4848,-0.32894 -1.05191,-0.44531 -1.61914,-0.44531 -0.29023,0 -0.56875,0.0296 -0.83984,0.0996 -0.23232,0.057 -0.47204,0.14193 -0.70118,0.2832 -0.003,0.002 -0.005,0.002 -0.008,0.004 a 0.35656125,0.35656125 0 0 0 -0.006,0.004 c -0.0635,0.0405 -0.0918,0.0861 -0.14258,0.13086 -0.17871,-0.14037 -0.36489,-0.27212 -0.57812,-0.34375 -0.24498,-0.0872 -0.50143,-0.13371 -0.75977,-0.13476 a 0.35656125,0.35656125 0 0 0 -0.002,0 c -0.002,-10e-6 -0.002,-10e-6 -0.004,0 h -0.006 c 0,0 -0.002,0 -0.002,0 a 0.35656125,0.35656125 0 0 0 -0.002,0 c -0.34879,0.001 -0.69841,0.0897 -1.02539,0.24414 -0.26738,-0.13881 -0.55894,-0.24415 -0.875,-0.24414 -0.24599,0 -0.49662,0.0343 -0.74024,0.11523 a 0.35656125,0.35656125 0 0 0 -0.0117,0.002 c -0.0542,0.0187 -0.0671,0.0307 -0.10351,0.0488 -0.0492,-0.0331 -0.12509,-0.0473 -0.19922,-0.0781 -0.0204,-0.35479 -0.15721,-0.70044 -0.41601,-0.95899 -0.28286,-0.28171 -0.66351,-0.42773 -1.04102,-0.42773 -0.38308,0 -0.74654,0.15121 -1.01563,0.40429 a 0.35656125,0.35656125 0 0 0 -0.002,0.002 c -6.6e-4,6.2e-4 -0.001,0.001 -0.002,0.002 a 0.35656125,0.35656125 0 0 0 -0.0215,0.0195 c -0.27943,0.27944 -0.42968,0.65814 -0.42968,1.04102 v 4.16015 c 0,0.35252 0.1392,0.68293 0.36132,0.94727 -0.11637,0.24895 -0.24555,0.49548 -0.30078,0.8125 -0.0971,0.55713 -0.0733,1.12451 0.0586,1.67578 a 0.35656125,0.35656125 0 0 0 0,0.002 c 0.13235,0.55284 0.37131,1.06811 0.70898,1.51953 0.32432,0.43358 0.72211,0.80311 1.17969,1.08399 0.4574,0.28077 0.96356,0.46774 1.49609,0.56055 0.55379,0.0965 1.12131,0.076 1.67578,-0.0566 0.3222,-0.077 0.55425,-0.22838 0.78711,-0.36133 0.2006,0.19875 0.3982,0.40606 0.67578,0.54687 a 0.35656125,0.35656125 0 0 0 0.002,0 c 0.001,6.8e-4 0.003,0.001 0.004,0.002 0.45533,0.22753 0.96047,0.32812 1.47266,0.32812 0.45895,0 0.91129,-0.10499 1.32031,-0.30859 a 0.35656125,0.35656125 0 0 0 0.002,0 l 0.004,-0.002 c 0.25013,-0.12371 0.45441,-0.31467 0.66602,-0.49414 0.0634,0.0767 0.0993,0.15263 0.18945,0.22266 0.21652,0.16824 0.46078,0.29479 0.71484,0.37695 0.004,0.002 0.009,0.004 0.0137,0.006 a 0.35656125,0.35656125 0 0 0 0.0234,0.008 c 0.24188,0.0691 0.49408,0.10547 0.75,0.10547 0.21658,0 0.44035,-0.0192 0.66797,-0.0781 a 0.35656125,0.35656125 0 0 0 0.008,-0.002 c 0.007,-0.002 0.013,-0.006 0.0195,-0.008 0.0865,-0.0249 0.1515,-0.0561 0.22265,-0.0859 0.12011,0.0745 0.22994,0.17383 0.47266,0.17383 0.34584,0 0.69595,-0.13447 0.9707,-0.39062 0.0857,0.064 0.13831,0.12915 0.25195,0.18164 0.37798,0.1745 0.78758,0.25195 1.19532,0.25195 0.36922,0 0.73814,-0.0519 1.09179,-0.19336 0.22555,-0.0902 0.44077,-0.22165 0.64649,-0.37695 0.17321,0.12752 0.34461,0.25698 0.53906,0.3457 0.009,0.004 0.0167,0.008 0.0254,0.0117 0.37113,0.15808 0.76061,0.21289 1.14649,0.21289 0.26427,0 0.52735,-0.0248 0.78906,-0.0781 a 0.35656125,0.35656125 0 0 0 0.004,0 c 0.007,-0.002 0.0141,-0.004 0.0215,-0.006 0.29212,-0.0663 0.57341,-0.17692 0.82617,-0.33789 a 0.35656125,0.35656125 0 0 0 0.0176,-0.0156 c 0.0496,-0.0331 0.0373,-0.0394 0.0703,-0.0703 0.14437,0.0981 0.28144,0.20811 0.44141,0.28125 0.009,0.004 0.0167,0.008 0.0254,0.0117 0.37113,0.15808 0.76061,0.21289 1.14648,0.21289 0.26428,0 0.52736,-0.0248 0.78907,-0.0781 a 0.35656125,0.35656125 0 0 0 0.002,0 c 0.007,-0.002 0.016,-0.004 0.0234,-0.006 0.29211,-0.0663 0.57339,-0.17687 0.82617,-0.33789 a 0.35656125,0.35656125 0 0 0 0.0176,-0.0137 c 0.0884,-0.0589 0.10813,-0.10725 0.16406,-0.16797 0.15348,0.12486 0.29138,0.26243 0.48437,0.35156 0.378,0.17454 0.78759,0.25196 1.19532,0.25196 0.3692,0 0.73812,-0.0519 1.09179,-0.19336 0.1253,-0.0501 0.22288,-0.12401 0.33203,-0.18945 0.25607,0.20835 0.57076,0.33984 0.90625,0.33984 0.37699,0 0.73791,-0.15063 1.00391,-0.41406 l 0.004,-0.004 c 0.007,-0.007 0.0143,-0.014 0.0215,-0.0215 a 0.35656125,0.35656125 0 0 0 0.004,-0.004 c 0.24693,-0.26284 0.39453,-0.6158 0.39453,-0.99023 l 0.002,-1.58204 c 0.23888,-0.0558 0.47378,-0.14993 0.66406,-0.33984 5.8e-4,-5.8e-4 0.001,-0.001 0.002,-0.002 0.25588,-0.25626 0.42383,-0.6149 0.42383,-1.00977 0,-0.39221 -0.17432,-0.74539 -0.43164,-1.00195 -0.25677,-0.25754 -0.60996,-0.43164 -1.00196,-0.43164 -0.2418,0 -0.46986,0.0642 -0.67969,0.15429 -0.0935,-0.0653 -0.1675,-0.15429 -0.40625,-0.15429 -0.34203,0 -0.66986,0.13883 -0.93359,0.36719 -0.13653,-0.0875 -0.25389,-0.18811 -0.42383,-0.2461 h -0.002 c -0.1,-0.0343 -0.17941,-0.0305 -0.27344,-0.0469 l 0.9961,-2.92578 c 0.16782,-0.49356 0.12693,-1.04349 -0.0996,-1.50391 -0.22847,-0.46377 -0.64162,-0.826 -1.12891,-0.99219 a 0.35656125,0.35656125 0 0 0 -0.11523,-0.0195 h 0.0566 l -0.77539,-0.26367 -0.28321,-0.63672 c -0.12354,-0.2761 -0.36601,-0.49625 -0.65234,-0.59375 l -2.45117,-0.83398 c -0.0958,-0.0327 -0.19582,-0.0512 -0.29688,-0.0566 z"
           transform="matrix(5.4961027,0,0,5.4961027,-1283.4761,-1069.7611)"
           inkscape:href="#path13624"
           inkscape:export-filename="..\..\..\Downloads\path13628.png"
           inkscape:export-xdpi="96"
           inkscape:export-ydpi="96" /><path
           id="path12893"
           style="fill:url(#linearGradient17670);fill-opacity:1;stroke-width:0.0170141"
           d="m 207.30712,7.9759599 -0.003,0.00279 a 4.1086605,4.1086605 0 0 0 -2.17274,0.4831068 l -4.1126,2.2324073 -5.38784,-1.8262451 c -2.14655,-0.7298822 -4.70671,-0.5664285 -6.75115,0.4402384 -2.03865,1.0044117 -3.73921,2.9218377 -4.47614,5.0896107 l -2.55617,7.534992 c -0.59451,-0.312729 -1.08773,-0.790946 -1.72681,-1.008261 -1.57678,-0.544113 -3.24304,-0.806608 -4.93909,-0.806608 -1.92302,0 -3.83737,0.39462 -5.56112,1.215629 -1.06585,0.494098 -1.91582,1.315216 -2.81174,2.070491 -0.24404,-0.40781 -0.22973,-0.938405 -0.54797,-1.255365 -1.04101,-1.045249 -2.66913,-1.792169 -4.13245,-1.792169 -0.87641,0 -1.62598,0.645134 -2.46814,1.073609 -0.0275,-0.01105 -0.0385,-0.04396 -0.0653,-0.05662 -1.62058,-0.734388 -3.37897,-1.019636 -5.20604,-1.019636 -1.60278,0 -3.19483,0.288545 -4.6806,0.849258 a 4.1086605,4.1086605 0 0 0 -0.0329,0.01105 c -1.52214,0.587862 -2.86054,1.546603 -3.98478,2.69254 -0.49026,-0.577034 -0.85816,-1.271412 -1.47978,-1.684279 -2.25207,-1.528082 -4.95088,-2.104568 -7.80484,-2.104568 -1.47498,0 -2.8377,0.143441 -4.14384,0.482557 -1.14417,0.280851 -2.25824,0.681792 -3.29459,1.320714 a 4.1086605,4.1086605 0 0 0 -0.0549,0.03297 c -0.71108,0.45398 -1.28863,1.097244 -1.85751,1.738197 -0.21215,-0.243476 -0.3122,-0.57808 -0.54796,-0.795285 -0.91708,-0.863492 -2.05138,-1.516705 -3.26337,-1.919954 -1.14138,-0.406161 -2.33668,-0.619959 -3.53037,-0.624851 a 4.1086605,4.1086605 0 0 0 -0.0219,0 h -0.0329 a 4.1086605,4.1086605 0 0 0 -0.011,0 c -1.78832,0.0056 -3.58053,0.389124 -5.17194,1.215626 -0.1644,0.08464 -0.22039,0.280302 -0.37759,0.374836 -1.4691,-0.956706 -3.19498,-1.587659 -4.90505,-1.587659 -1.17759,0 -2.33534,0.156642 -3.44511,0.525429 a 4.1086605,4.1086605 0 0 0 -0.044,0.01105 c -0.39792,0.137402 -0.7506,0.362743 -1.12758,0.536971 -0.83354,-0.422651 -1.57574,-1.069103 -2.44538,-1.07361 a 4.1086605,4.1086605 0 0 0 -0.022,0 h -0.011 a 4.1086605,4.1086605 0 0 0 -0.022,0 c -0.20061,0.001 -0.35231,0.209951 -0.55665,0.235781 v -1.266686 c 0,-1.498951 -0.7018,-3.247702 -1.792169,-4.336975 -1.112962,-1.108453 -2.840716,-1.780846 -4.336976,-1.780846 -1.515659,0 -3.185156,0.696412 -4.251783,1.70698 a 4.1086605,4.1086605 0 0 0 -0.08519,0.07365 c -1.088063,1.088064 -1.783651,2.836923 -1.783651,4.336975 v 22.863512 c 0,1.515714 0.677944,3.174219 1.70698,4.263106 a 4.1086605,4.1086605 0 0 0 0.161576,0.162128 c 0.115419,0.10938 0.334162,0.08023 0.462771,0.18192 -0.820733,1.740451 -1.693459,3.463204 -2.030755,5.399207 -0.485306,2.785699 -0.365489,5.640044 0.301187,8.426843 0.668271,2.791417 1.862354,5.382664 3.553066,7.642935 1.641796,2.194869 3.640288,4.043977 5.93601,5.453177 2.296324,1.409587 4.840144,2.353487 7.534994,2.823131 2.773,0.483106 5.62824,0.37978 8.42685,-0.289645 1.85108,-0.442437 3.41873,-1.458885 5.047,-2.351673 1.26691,1.382656 2.65178,2.666984 4.33698,3.521848 a 4.1086605,4.1086605 0 0 0 0.0219,0.01105 c 2.18826,1.093506 4.6515,1.598982 7.21412,1.598982 2.22816,0 4.42007,-0.511688 6.38755,-1.491093 l 0.0219,-0.01105 c 1.83022,-0.903395 3.47349,-2.121551 4.85108,-3.607038 0.56793,0.850192 1.13787,1.712585 1.93135,2.328919 0.99836,0.775774 2.1415,1.365671 3.32864,1.749573 a 4.1086605,4.1086605 0 0 0 0.13901,0.04396 c 1.15737,0.330866 2.36639,0.505641 3.58714,0.505641 1.07691,0 2.12567,-0.09178 3.17533,-0.363293 a 4.1086605,4.1086605 0 0 0 0.1077,-0.03298 c 0.59474,-0.170928 1.16436,-0.424848 1.73817,-0.675966 0.8862,0.452331 1.74287,1.073607 2.62148,1.073607 1.39705,0 3.08089,-0.625729 4.16374,-1.706923 a 4.1086605,4.1086605 0 0 0 0.011,-0.01105 c 0.33088,-0.331416 0.30064,-0.881795 0.54796,-1.309337 0.90236,0.74681 1.75227,1.567324 2.82319,2.061972 1.78854,0.825736 3.74855,1.201393 5.74287,1.201393 1.85323,0 3.61149,-0.248973 5.26852,-0.911692 1.31225,-0.524879 2.52985,-1.178971 3.60702,-2.093192 0.22151,-0.184119 0.36221,-0.469368 0.5709,-0.667447 0.0562,0.05606 0.0819,0.137402 0.13901,0.192913 a 4.1086605,4.1086605 0 0 0 0.1077,0.09673 c 1.06651,0.961653 2.28875,1.716049 3.63832,2.331776 a 4.1086605,4.1086605 0 0 0 0.0966,0.04396 c 1.73496,0.739007 3.58807,1.00826 5.527,1.00826 1.33341,0 2.65153,-0.121459 3.95071,-0.386375 a 4.1086605,4.1086605 0 0 0 0.0966,-0.02199 c 1.40987,-0.319873 2.74189,-0.851896 3.91943,-1.601895 a 4.1086605,4.1086605 0 0 0 0.0626,-0.05662 c 0.46716,-0.31163 0.76329,-0.850029 1.18155,-1.244044 1.04304,0.91785 2.2263,1.654768 3.53316,2.252304 a 4.1086605,4.1086605 0 0 0 0.0994,0.04396 c 1.73502,0.739006 3.58819,1.008261 5.52701,1.008261 1.3334,0 2.65152,-0.121459 3.9507,-0.386377 a 4.1086605,4.1086605 0 0 0 0.0966,-0.02199 c 1.4099,-0.319872 2.74188,-0.848928 3.91948,-1.599036 a 4.1086605,4.1086605 0 0 0 0.0626,-0.05495 c 0.69428,-0.462772 1.1853,-1.205844 1.76096,-1.846142 1.09714,1.079105 2.30704,2.05362 3.71497,2.703862 1.7886,0.825847 3.74851,1.204253 5.74283,1.204253 1.85324,0 3.61451,-0.251722 5.27142,-0.914552 1.09256,-0.43694 2.07043,-1.046129 3.00494,-1.738197 0.12649,0.172586 0.0956,0.452879 0.2358,0.602097 a 4.1086605,4.1086605 0 0 0 0.18189,0.18192 c 1.0493,0.985781 2.65704,1.630253 4.11256,1.630253 1.45576,0 3.13371,-0.695972 4.15521,-1.715498 a 4.1086605,4.1086605 0 0 0 0.0966,-0.09947 c 0.95874,-1.020517 1.63025,-2.648408 1.63025,-4.101248 l 0.011,-9.168158 c 0,-7.14e-4 0.0166,-0.303385 0.0966,-0.74126 0.0219,-0.135745 0.0698,-0.250622 0.13901,-0.386376 0.002,-0.0033 -0.002,-0.0029 0,-0.01105 6e-4,-0.0013 0.011,0.0012 0.011,0 0.003,-1.66e-4 0.005,-0.01105 0.0111,-0.01105 1.36012,-0.05495 2.96481,-0.629303 3.97059,-1.633111 a 4.1086605,4.1086605 0 0 0 0.0111,-0.01105 c 1.00491,-1.00639 1.74958,-2.626365 1.74958,-4.163682 0,-1.466745 -0.77298,-3.10777 -1.79217,-4.123945 -1.01541,-1.018484 -2.65775,-1.792169 -4.12108,-1.792169 -1.11491,0 -2.22857,0.273706 -3.20946,0.729937 -0.15115,0.06816 -0.30943,0.192913 -0.46278,0.269858 -0.80374,-0.370986 -1.51345,-0.999739 -2.29769,-0.999739 -1.44521,0 -3.1308,0.678823 -4.19496,1.738197 -0.22533,0.225338 -0.1797,0.619354 -0.36659,0.891797 -1.08642,-0.838486 -2.23114,-1.624813 -3.5417,-2.070491 -1.10724,-0.381981 -2.29159,-0.462223 -3.46787,-0.570881 l 6.21395,-18.259591 c 0.73911,-2.173544 0.55296,-4.727143 -0.4485,-6.76246 -1.00743,-2.044991 -2.93321,-3.733283 -5.07823,-4.464815 h -0.011 L 226.22793,19.2517 224.31649,14.977216 A 4.1086605,4.1086605 0 0 0 221.891,12.767562 L 208.41144,8.1834822 A 4.1086605,4.1086605 0 0 0 207.30945,7.970235 Z" /><path
           d="m 112.70487,65.658274 q 0.8687,-0.207753 1.32505,-0.951266 0.45618,-0.743349 0.24843,-1.612063 -0.20775,-0.868714 -0.9512,-1.324999 -0.74335,-0.456177 -1.61213,-0.248425 -0.86871,0.207753 -1.325,0.95121 -0.45618,0.74335 -0.24842,1.612064 0.20775,0.868713 0.95121,1.324999 0.74335,0.456177 1.61206,0.248424 z m -3.01358,-6.014277 3.06123,-0.732464 q -0.32647,-1.365123 -0.20446,-2.225373 0.12207,-0.860196 1.24339,-2.571791 0.81821,-1.332914 1.20606,-2.453515 0.38803,-1.1206 0.0609,-2.485724 -0.55433,-2.316552 -2.54733,-3.151794 -1.99299,-0.835188 -4.3096,-0.28085 -2.35794,0.564175 -3.52955,2.156615 -1.1716,1.592441 -1.335,3.468425 l 2.98763,0.422101 q 0.0275,-0.794132 0.54466,-1.836028 0.51608,-1.041951 2.00531,-1.398318 1.32373,-0.316576 2.15888,0.248973 0.83507,0.565604 1.04293,1.434318 0.19786,0.827329 -0.12539,1.670047 -0.32316,0.842717 -0.91933,1.641411 -1.43416,2.048836 -1.64982,2.975149 -0.21599,0.926368 0.30888,3.118818 z m 4.68006,12.613226 q -3.43348,0.821613 -6.7651,0.241279 -3.33163,-0.580498 -6.10002,-2.279839 -2.768334,-1.699339 -4.793977,-4.407378 -2.025643,-2.707985 -2.847256,-6.14151 -0.821558,-3.433471 -0.241279,-6.765098 0.580497,-3.331628 2.279838,-6.100015 1.699339,-2.768332 4.407384,-4.793975 2.70798,-2.0257 6.1415,-2.847257 3.43348,-0.821558 6.7651,-0.241279 3.33163,0.5805 6.10002,2.279839 2.76833,1.69934 4.79397,4.407324 2.02569,2.708041 2.84725,6.141565 0.82156,3.43347 0.24128,6.765099 -0.58049,3.331628 -2.27982,6.09996 -1.69935,2.768385 -4.40734,4.79403 -2.70804,2.025644 -6.14155,2.8472 z m -0.79188,-3.309368 q 5.54325,-1.326375 8.46987,-6.094134 2.92662,-4.767704 1.60026,-10.310962 -1.32639,-5.543205 -6.09409,-8.469824 -4.76776,-2.92662 -10.31097,-1.600246 -5.54325,1.326375 -8.469874,6.094079 -2.926621,4.767759 -1.600246,10.310962 1.326375,5.54326 6.09408,8.46988 4.76776,2.92662 10.31097,1.600245 z m -3.16746,-13.237583 z"
           id="path7613"
           style="fill:#a2aeff;fill-opacity:0.800578;stroke-width:0.0170141" /><path
           d="m 97.406466,19.330523 q 0,-0.852114 -0.579675,-1.43146 -0.579672,-0.579342 -1.433054,-0.579342 -0.817984,0 -1.429865,0.579342 -0.579619,0.579346 -0.579619,1.43146 v 22.86901 q 0,0.817929 0.579619,1.431404 0.611881,0.579344 1.429865,0.579344 0.853382,0 1.433054,-0.579344 0.579675,-0.613475 0.579675,-1.431404 z"
           id="path2614"
           style="font-weight:500;font-size:1.05833px;font-family:RockoFLF;-inkscape-font-specification:'RockoFLF Medium';fill:#00149a;fill-opacity:1;stroke-width:12.8813" /><path
           d="m 119.69607,24.47691 q -1.90961,0 -3.34014,0.749668 -1.3976,0.715593 -2.31865,2.385638 -0.68272,-1.329013 -1.90968,-2.215258 -1.22695,-0.920377 -2.93051,-0.920377 -1.22695,0 -2.14794,0.306132 -0.88558,0.306132 -1.53291,0.715923 -0.64727,0.40891 -1.05625,0.85206 -0.37373,0.442986 -0.57966,0.681792 v -0.749723 q 0,-0.74967 -0.51225,-1.261082 -0.51223,-0.545213 -1.26239,-0.545213 -0.75034,0 -1.29461,0.545213 -0.51224,0.511138 -0.51224,1.261082 v 16.120727 q 0,0.749724 0.51224,1.295269 0.54411,0.511135 1.29461,0.511135 0.75032,0 1.26239,-0.511135 0.51225,-0.545215 0.51225,-1.295269 v -9.883751 q 0,-0.988308 0.22534,-1.908686 0.25776,-0.920377 0.78258,-1.63597 0.54412,-0.715867 1.36221,-1.124832 0.81793,-0.442988 1.94183,-0.442988 1.36221,0 2.1126,0.852117 0.75033,0.852116 0.75033,2.044936 v 12.099064 q 0,0.749723 0.51223,1.295212 0.54412,0.511687 1.29461,0.511687 0.75033,0 1.26233,-0.511687 0.51225,-0.545212 0.51225,-1.295212 V 32.51963 q 0,-0.988308 0.22535,-1.908685 0.25775,-0.920378 0.78252,-1.63597 0.54412,-0.715867 1.36222,-1.124833 0.81799,-0.442985 1.94187,-0.442985 1.29456,0 2.08034,0.852115 0.78253,0.852116 0.78253,2.044936 v 12.099066 q 0,0.749668 0.51223,1.29521 0.54413,0.511689 1.29456,0.511689 0.75037,0 1.26239,-0.511689 0.51225,-0.545213 0.51225,-1.29521 v -12.2695 q 0,-1.397329 -0.44465,-2.453901 -0.44462,-1.056625 -1.22695,-1.772162 -0.75032,-0.715593 -1.80662,-1.056627 -1.02402,-0.374835 -2.25098,-0.374835 z"
           id="path2616"
           style="font-weight:500;font-size:1.05833px;font-family:RockoFLF;-inkscape-font-specification:'RockoFLF Medium';fill:#00149a;fill-opacity:1;stroke-width:12.8813" /><path
           d="m 131.89737,29.725523 q 0.22534,-0.511138 0.51224,-0.988309 0.32206,-0.477063 0.78254,-0.817985 0.4765,-0.340759 1.22693,-0.545214 0.7504,-0.202805 1.97733,-0.202805 0.68269,0 1.39763,0.170376 0.71492,0.135211 1.29459,0.442985 0.57961,0.306135 0.95319,0.783801 0.37373,0.477062 0.37373,1.124887 0,0.545214 -0.12869,0.988309 -0.0966,0.442985 -0.61184,0.783853 -0.51223,0.34076 -1.53291,0.613477 -1.02409,0.23853 -2.82747,0.442985 -1.56831,0.170928 -2.99812,0.545214 -1.39766,0.374833 -2.48935,1.090756 -1.0917,0.715537 -1.73896,1.840425 -0.64728,1.090701 -0.64728,2.726671 0,1.431405 0.57961,2.453902 0.57969,1.022439 1.50072,1.704175 0.95319,0.681791 2.11254,1.022494 1.19155,0.306135 2.35083,0.306135 1.83885,0 3.4764,-0.477063 1.67137,-0.477061 2.96591,-1.874611 v 0.545213 q 0,0.749725 0.51225,1.295268 0.54411,0.511137 1.29461,0.511137 0.75032,0 1.2624,-0.511137 0.51223,-0.545213 0.51223,-1.295268 V 29.692653 q 0,-2.692539 -2.08033,-4.055738 -2.04494,-1.397329 -5.52133,-1.397329 -1.83878,0 -3.13663,0.340758 -1.26234,0.306133 -2.14793,0.852061 -0.85337,0.545213 -1.3622,1.261136 -0.51224,0.681738 -0.81798,1.397275 -0.1611,0.442985 -0.1611,0.749723 0,0.783799 0.57967,1.22695 0.57968,0.442985 1.26241,0.442985 0.37372,0 0.71487,-0.170377 0.37374,-0.202806 0.57967,-0.613475 z m 8.52039,4.703344 v 2.419771 q 0,1.261079 -0.51225,2.11314 -0.4765,0.852117 -1.29459,1.363199 -0.78255,0.511139 -1.77118,0.749723 -0.98864,0.202806 -1.97734,0.202806 -0.64728,0 -1.29456,-0.102766 -0.64726,-0.135211 -1.15934,-0.40891 -0.51224,-0.306134 -0.85014,-0.783856 -0.32205,-0.511138 -0.32205,-1.26108 0,-0.954178 0.4089,-1.567653 0.44464,-0.613475 1.15929,-0.988364 0.71492,-0.408911 1.60376,-0.613476 0.88559,-0.202806 1.80662,-0.340758 0.9532,-0.135211 1.80662,-0.23853 0.8856,-0.103324 1.53288,-0.306134 z"
           id="path2618"
           style="font-weight:500;font-size:1.05833px;font-family:RockoFLF;-inkscape-font-specification:'RockoFLF Medium';fill:#00149a;fill-opacity:1;stroke-width:12.8813" /><path
           d="m 160.3559,26.589996 q -0.98864,-0.817984 -2.45391,-1.46559 -1.42984,-0.647607 -3.51049,-0.647607 -1.70359,0 -3.23776,0.579344 -1.50067,0.579345 -2.66001,1.806295 -1.12391,1.192819 -1.80663,3.067375 -0.68266,1.840425 -0.68266,4.430683 0,2.555963 0.61505,4.430628 0.6119,1.874556 1.70359,3.067375 1.1239,1.192819 2.65675,1.772164 1.56832,0.579343 3.40841,0.579343 1.26241,0 2.21564,-0.273704 0.95318,-0.306134 1.67136,-0.715924 0.71486,-0.408909 1.22693,-0.852059 0.51226,-0.477063 0.85339,-0.852117 v 2.249391 q 0,1.192818 -0.4089,2.044935 -0.40892,0.886245 -1.12397,1.43146 -0.71486,0.579343 -1.6713,0.817929 -0.95323,0.273705 -2.04492,0.273705 -1.02407,0 -1.77121,-0.13521 -0.71489,-0.135211 -1.29456,-0.40891 -0.54413,-0.273707 -0.98864,-0.681792 -0.44465,-0.374835 -0.8856,-0.886247 -0.61186,-0.647606 -1.22695,-0.647606 -0.61187,0 -1.05629,0.511137 -0.44463,0.511689 -0.44463,1.19282 0,0.40891 0.44463,1.090757 0.44464,0.715866 1.3976,1.363143 0.95325,0.681736 2.3863,1.158689 1.43306,0.511686 3.44226,0.511686 1.83879,0 3.44219,-0.579344 1.60053,-0.545214 2.79526,-1.567708 1.19152,-0.988309 1.87423,-2.385583 0.71494,-1.397329 0.71494,-3.10156 V 26.28391 q 0,-0.749724 -0.54412,-1.26108 -0.51223,-0.545212 -1.26239,-0.545212 -0.75032,0 -1.26236,0.545212 -0.51223,0.511138 -0.51223,1.26108 z m -11.00878,7.770665 q 0,-3.408189 1.5007,-5.180461 1.50065,-1.772164 4.12399,-1.772164 2.62454,0 4.08981,1.772164 1.5007,1.772164 1.5007,5.180461 0,3.408188 -1.5007,5.180461 -1.46527,1.738033 -4.08981,1.738033 -2.6246,0 -4.12399,-1.738033 -1.5007,-1.772162 -1.5007,-5.180461 z"
           id="path2620"
           style="font-weight:500;font-size:1.05833px;font-family:RockoFLF;-inkscape-font-specification:'RockoFLF Medium';fill:#00149a;fill-opacity:1;stroke-width:12.8813" /><path
           d="m 236.64651,65.649699 q 0.81799,0 1.43307,-0.647606 0.61188,-0.647661 0.61188,-1.90874 0,-2.044881 -0.71494,-3.646775 -0.71492,-1.601785 -1.97729,-2.69254 -1.22694,-1.124832 -2.9305,-1.704178 -1.67137,-0.579343 -3.61292,-0.579343 -2.11254,0 -3.8171,0.817929 -1.70351,0.783855 -2.93046,2.147328 -1.19157,1.363198 -1.84209,3.237808 -0.64726,1.840425 -0.64726,3.919382 0,2.010803 0.61187,3.851284 0.64728,1.840425 1.84201,3.237809 1.22696,1.363144 2.99814,2.181128 1.77122,0.817984 4.02161,0.817984 2.21558,0 3.7491,-0.613474 1.53293,-0.613475 2.48936,-1.43146 0.98863,-0.817985 1.43304,-1.63597 0.44135,-0.81793 0.44135,-1.226951 0,-0.681737 -0.51224,-1.124832 -0.51224,-0.442985 -1.12389,-0.442985 -0.37704,0 -0.71494,0.170928 -0.34131,0.170929 -0.61508,0.579345 -0.4765,0.715538 -0.95323,1.26108 -0.47651,0.511138 -1.0563,0.852117 -0.57962,0.340757 -1.33,0.511137 -0.75033,0.170929 -1.80662,0.170929 -1.29456,0 -2.21559,-0.408911 -0.88559,-0.442985 -1.50065,-1.090702 -0.6119,-0.647606 -0.98864,-1.397329 -0.34132,-0.783799 -0.54412,-1.46559 -0.1611,-0.681736 -0.22534,-1.158688 -0.0329,-0.511138 -0.0329,-0.57929 z m -7.12304,-8.247836 q 1.46525,0 2.55696,0.442985 1.09168,0.442985 1.77116,1.192819 0.71494,0.715538 1.0563,1.670047 0.3413,0.954178 0.3413,2.010804 h -11.0426 q 0,-0.06761 0.0329,-0.477063 0.0329,-0.442986 0.19347,-1.022439 0.1611,-0.579344 0.51223,-1.26108 0.34131,-0.681737 0.92103,-1.226952 0.61185,-0.579343 1.50067,-0.954178 0.88558,-0.374832 2.14799,-0.374832 z"
           id="path2609"
           style="font-weight:500;font-size:1.05833px;font-family:RockoFLF;-inkscape-font-specification:'RockoFLF Medium';fill:#00149a;fill-opacity:1;stroke-width:12.8813" /><path
           d="m 202.74596,46.97265 q 4.2154,1.43278 8.16913,-0.514984 3.95374,-1.947765 5.38651,-6.163165 1.43283,-4.215401 -0.51498,-8.169132 -1.94782,-3.953732 -6.16323,-5.38651 -4.21534,-1.432835 -8.16906,0.514984 -3.95375,1.947818 -5.38657,6.163219 -1.43279,4.215346 0.51497,8.169078 1.94777,3.953732 6.16317,5.386565 z m 1.52835,-4.496417 q -2.36063,-0.802375 -3.43655,-2.986362 -1.07597,-2.183931 -0.2737,-4.544562 0.80237,-2.360632 2.98636,-3.436547 2.18393,-1.075919 4.54456,-0.273707 2.36063,0.802377 3.43656,2.986306 1.0759,2.183987 0.2737,4.54462 -0.80237,2.360574 -2.98631,3.436547 -2.18399,1.075917 -4.54457,0.273705 z m -22.18854,6.251818 q -1.85476,-0.630403 -2.72666,-2.400148 -0.87186,-1.7698 -0.24129,-3.624571 l 9.16993,-26.978444 q 0.63045,-1.854769 2.4002,-2.726671 1.7698,-0.871847 3.62457,-0.24128 l 7.08184,2.407129 5.68748,-3.082709 13.48925,4.58496 2.63087,5.910123 7.08183,2.407073 q 1.85477,0.630458 2.72661,2.400203 0.87191,1.769746 0.2413,3.624514 l -9.16994,26.9785 q -0.63039,1.85477 -2.4002,2.726616 -1.76974,0.871903 -3.6245,0.24128 z m 1.52831,-4.496362 35.97127,12.226519 9.16992,-26.978444 -9.10521,-3.094855 -2.57466,-5.890997 -9.55486,-3.247704 -5.63131,3.101837 L 192.784,17.25319 Z M 206.1847,36.8557 Z"
           id="path8360"
           style="fill:#a2aeff;fill-opacity:1;stroke-width:0.0237453" /><path
           d="m 131.94688,50.653639 q 1.50073,0 2.52156,0.306132 1.05624,0.306133 1.80657,0.852116 0.75039,0.511137 1.26241,1.226949 0.54411,0.681792 1.02084,1.499722 0.37373,0.613475 0.95324,0.920378 0.57969,0.273705 1.15931,0.273705 0.78252,0 1.3622,-0.442985 0.57967,-0.477063 0.57967,-1.295213 0,-0.613474 -0.54411,-1.772162 -0.54412,-1.158689 -1.80662,-2.283522 -1.22696,-1.158687 -3.27189,-2.010804 -2.04494,-0.852114 -5.04405,-0.852114 -3.06574,0 -5.38504,1.158688 -2.28323,1.158687 -3.81709,3.101505 -1.50065,1.908686 -2.28325,4.430684 -0.75033,2.522161 -0.75033,5.214482 0,2.726672 0.75033,5.248613 0.7826,2.488086 2.28325,4.430683 1.53286,1.942817 3.81709,3.101506 2.31866,1.158688 5.38504,1.158688 2.45397,0 4.56709,-1.056625 2.14799,-1.056572 3.71472,-2.760802 1.60369,-1.704178 2.48934,-3.85123 0.92098,-2.146997 0.92098,-4.328402 0,-0.40891 -0.0329,-0.988308 -0.0329,-0.579343 -0.25775,-1.090757 -0.19347,-0.511138 -0.68274,-0.886245 -0.47651,-0.374836 -1.33,-0.374836 h -6.37338 q -0.75035,0 -1.26241,0.545214 -0.51224,0.511137 -0.51224,1.261082 0,0.749723 0.51224,1.29521 0.51223,0.511137 1.26241,0.511137 h 4.7716 q 0,1.601785 -0.57967,3.101507 -0.54413,1.465591 -1.56831,2.590149 -1.02086,1.124832 -2.45391,1.806292 -1.43306,0.647606 -3.16884,0.647606 -1.70356,0 -3.20423,-0.715867 -1.5007,-0.749723 -2.62461,-2.113196 -1.09168,-1.363199 -1.73896,-3.271884 -0.64734,-1.908687 -0.64734,-4.260249 0,-2.351837 0.64734,-4.26025 0.64728,-1.908687 1.73896,-3.237754 1.12391,-1.363143 2.62461,-2.079065 1.50067,-0.74967 3.20423,-0.74967 z"
           id="path2599"
           style="font-weight:500;font-size:1.05833px;font-family:RockoFLF;-inkscape-font-specification:'RockoFLF Medium';fill:#00149a;fill-opacity:1;stroke-width:12.8813" /><path
           d="m 152.19161,74.442859 q 1.22695,0 2.14799,-0.238532 0.9532,-0.273704 1.67137,-0.647606 0.71489,-0.374833 1.19148,-0.783853 0.51223,-0.442985 0.85339,-0.749669 v 0.613477 q 0,0.749667 0.51223,1.29521 0.51223,0.511138 1.26234,0.511138 0.75038,0 1.26241,-0.511138 0.5441,-0.545213 0.5441,-1.29521 V 56.515891 q 0,-0.749669 -0.5441,-1.261081 -0.51226,-0.545214 -1.26241,-0.545214 -0.75033,0 -1.26234,0.545214 -0.51223,0.511138 -0.51223,1.261081 v 9.883806 q 0,1.090702 -0.34133,2.04488 -0.3413,0.920378 -0.9886,1.60184 -0.61183,0.681736 -1.53287,1.090702 -0.92103,0.374833 -2.04493,0.374833 -0.68273,0 -1.3976,-0.202806 -0.68273,-0.206104 -1.2624,-0.579344 -0.54413,-0.408911 -0.92105,-0.988309 -0.34131,-0.579344 -0.34131,-1.363199 v -11.86048 q 0,-0.749722 -0.51223,-1.26108 -0.51223,-0.545214 -1.26234,-0.545214 -0.7504,0 -1.29461,0.545214 -0.51224,0.511138 -0.51224,1.26108 v 12.2695 q 0,1.397274 0.54411,2.453901 0.54412,1.056569 1.46527,1.772162 0.92103,0.715868 2.08031,1.090703 1.19157,0.340757 2.45391,0.340757 z"
           id="path2601"
           style="font-weight:500;font-size:1.05833px;font-family:RockoFLF;-inkscape-font-specification:'RockoFLF Medium';fill:#00149a;fill-opacity:1;stroke-width:12.8813" /><path
           d="m 180.07046,65.649699 q 0.81799,0 1.43307,-0.647606 0.61187,-0.647661 0.61187,-1.90874 0,-2.044881 -0.71494,-3.646775 -0.71492,-1.601785 -1.97728,-2.69254 -1.22695,-1.124832 -2.93051,-1.704178 -1.67138,-0.579343 -3.61258,-0.579343 -2.11255,0 -3.81743,0.817929 -1.70352,0.783855 -2.93047,2.147328 -1.19156,1.363198 -1.83883,3.237808 -0.64734,1.840425 -0.64734,3.919382 0,2.010803 0.61188,3.851284 0.64728,1.840425 1.84209,3.237809 1.22693,1.363144 2.99812,2.181128 1.77116,0.817984 4.02154,0.817984 2.21564,0 3.74918,-0.613474 1.53285,-0.613475 2.48929,-1.43146 0.98863,-0.817985 1.43304,-1.63597 0.44464,-0.81793 0.44464,-1.226951 0,-0.681737 -0.51223,-1.124832 -0.51225,-0.442985 -1.1239,-0.442985 -0.37374,0 -0.71493,0.170928 -0.34131,0.170929 -0.61188,0.579345 -0.47652,0.715538 -0.95319,1.26108 -0.47652,0.511138 -1.05631,0.852117 -0.57967,0.340757 -1.32999,0.511137 -0.75033,0.170929 -1.80663,0.170929 -1.29456,0 -2.21559,-0.408911 -0.88559,-0.442985 -1.50065,-1.090702 -0.61514,-0.647606 -0.98869,-1.397329 -0.3413,-0.783799 -0.54412,-1.46559 -0.1611,-0.681736 -0.22534,-1.158688 -0.0329,-0.511138 -0.0329,-0.57929 z m -7.12306,-8.247836 q 1.46526,0 2.55697,0.442985 1.09168,0.442985 1.77116,1.192819 0.71495,0.715538 1.0563,1.670047 0.34131,0.954178 0.34131,2.010804 h -11.04261 q 0,-0.06761 0.0329,-0.477063 0.0329,-0.442986 0.19347,-1.022439 0.16109,-0.579344 0.51223,-1.26108 0.34131,-0.681737 0.92103,-1.226952 0.61183,-0.579343 1.50067,-0.954178 0.88557,-0.374832 2.14798,-0.374832 z"
           id="path2603"
           style="font-weight:500;font-size:1.05833px;font-family:RockoFLF;-inkscape-font-specification:'RockoFLF Medium';fill:#00149a;fill-opacity:1;stroke-width:12.8813" /><path
           d="m 200.28106,68.512564 q 0,-1.43146 -0.54411,-2.385638 -0.54411,-0.954179 -1.46525,-1.601785 -0.8856,-0.681736 -2.04495,-1.056626 -1.15934,-0.408908 -2.35085,-0.681736 -1.19155,-0.306133 -2.35083,-0.511137 -1.15935,-0.238532 -2.07714,-0.545214 -0.8856,-0.340758 -1.43306,-0.783853 -0.54413,-0.477063 -0.54413,-1.22695 0,-0.988311 0.921,-1.635915 0.95323,-0.681792 3.03358,-0.681792 1.05627,0 1.73902,0.170929 0.71485,0.135211 1.19149,0.442985 0.51223,0.306134 0.81797,0.783854 0.32209,0.477062 0.57968,1.124558 0.19347,0.477062 0.57967,0.715867 0.37374,0.202806 0.81794,0.202806 0.71494,0 1.32999,-0.442987 0.6119,-0.47706 0.6119,-1.261079 0,-0.340758 -0.22535,-0.783854 -0.19347,-0.442987 -0.54411,-0.886247 -0.34131,-0.477062 -0.71489,-0.852061 -0.37701,-0.40891 -0.71493,-0.681792 -0.85338,-0.647605 -2.18019,-1.056569 -1.32999,-0.408911 -3.27188,-0.408911 -3.47634,0 -5.41921,1.499667 -1.94184,1.499722 -1.94184,4.15802 0,1.840425 0.921,2.896997 0.92103,1.022495 2.28323,1.601839 1.36221,0.545214 2.96593,0.852061 1.63595,0.273705 2.99817,0.613475 1.36222,0.340759 2.28326,0.920376 0.92097,0.579346 0.92097,1.738035 0,0.579343 -0.22534,1.124887 -0.22535,0.511686 -0.7504,0.954178 -0.47649,0.40891 -1.26233,0.681737 -0.78253,0.23853 -1.87423,0.23853 -2.38629,0 -3.6809,-0.988309 -1.26234,-0.98831 -1.83877,-2.4539 -0.19347,-0.511139 -0.57968,-0.749723 -0.37372,-0.23853 -0.78252,-0.23853 -0.64734,0 -1.22696,0.511685 -0.54412,0.477063 -0.54412,1.261083 0,0.47706 0.44463,1.397328 0.44464,0.920378 1.43306,1.874556 1.02084,0.920378 2.58915,1.635915 1.60053,0.681792 3.9195,0.681792 1.63597,0 3.13662,-0.306134 1.50071,-0.340758 2.62461,-1.05657 1.12391,-0.749724 1.80657,-1.908743 0.68272,-1.192764 0.68272,-2.896994 z"
           id="path2605"
           style="font-weight:500;font-size:1.05833px;font-family:RockoFLF;-inkscape-font-specification:'RockoFLF Medium';fill:#00149a;fill-opacity:1;stroke-width:12.8813" /><path
           d="m 244.28098,63.468461 q 0,-0.579344 0.1611,-1.465591 0.1611,-0.886247 0.61508,-1.704232 0.4765,-0.81793 1.29459,-1.397274 0.81799,-0.613475 2.11255,-0.613475 0.75032,0 1.26239,-0.511137 0.54412,-0.545214 0.54412,-1.261081 0,-0.749723 -0.54412,-1.261082 -0.51224,-0.545212 -1.26239,-0.545212 -0.78253,0 -1.50065,0.340758 -0.68274,0.306134 -1.26241,0.749669 -0.54411,0.40891 -0.92104,0.817984 -0.37373,0.40891 -0.51223,0.545214 v -0.647606 q 0,-0.749724 -0.51223,-1.261081 -0.51224,-0.545213 -1.26241,-0.545213 -0.75033,0 -1.29454,0.545213 -0.51225,0.511138 -0.51225,1.261081 v 16.120729 q 0,0.749723 0.51225,1.295212 0.5441,0.511137 1.29454,0.511137 0.75034,0 1.26241,-0.511137 0.51223,-0.545215 0.51223,-1.295212 z"
           id="path2611"
           style="font-weight:500;font-size:1.05833px;font-family:RockoFLF;-inkscape-font-specification:'RockoFLF Medium';fill:#00149a;fill-opacity:1;stroke-width:12.8813" /><g
           style="fill:#ffaff7;fill-opacity:1"
           id="g5577"
           transform="matrix(0.00919744,-0.00184874,0.00184874,0.00919744,112.13577,154.7119)" /><path
           d="m 182.37278,35.417176 q 0.81794,0 1.43305,-0.647604 0.61183,-0.647606 0.61183,-1.908689 0,-2.044932 -0.71487,-3.646772 -0.71495,-1.601785 -1.97734,-2.692486 -1.22695,-1.124888 -2.93052,-1.704231 -1.67137,-0.579346 -3.61259,-0.579346 -2.11253,0 -3.81705,0.817987 -1.70357,0.783798 -2.93052,2.146996 -1.19154,1.363144 -1.84206,3.237755 -0.64728,1.840425 -0.64728,3.919436 0,2.010802 0.61187,3.851228 0.64727,1.840425 1.84203,3.237809 1.22695,1.363199 2.99817,2.181128 1.77118,0.817986 4.02188,0.817986 2.21559,0 3.7488,-0.613476 1.53291,-0.613473 2.48934,-1.431459 0.98863,-0.81793 1.43306,-1.635916 0.44463,-0.817984 0.44463,-1.226948 0,-0.681737 -0.51223,-1.124889 -0.51224,-0.442985 -1.12397,-0.442985 -0.37372,0 -0.71486,0.170377 -0.34133,0.170928 -0.61513,0.579344 -0.47652,0.715867 -0.95318,1.261081 -0.47651,0.511688 -1.0563,0.852116 -0.57967,0.340757 -1.33002,0.511686 -0.75032,0.170377 -1.80663,0.170377 -1.29453,0 -2.21556,-0.408911 -0.88559,-0.442985 -1.50067,-1.090756 -0.61188,-0.647604 -0.9887,-1.397275 -0.3413,-0.783853 -0.54409,-1.46559 -0.1611,-0.681736 -0.22535,-1.158688 -0.0329,-0.511139 -0.0329,-0.579344 z m -7.12345,-8.247781 q 1.46527,0 2.55696,0.442987 1.0917,0.442985 1.77123,1.192819 0.71489,0.715538 1.05624,1.670045 0.34131,0.954234 0.34131,2.010805 h -11.04229 q 0,-0.06761 0.0329,-0.477062 0.0329,-0.442986 0.19346,-1.022495 0.1611,-0.579345 0.51223,-1.261082 0.34131,-0.681736 0.92104,-1.226949 0.61187,-0.579344 1.50066,-0.954179 0.88563,-0.374834 2.14798,-0.374834 z"
           id="path2622"
           style="font-weight:500;font-size:1.05833px;font-family:RockoFLF;-inkscape-font-specification:'RockoFLF Medium';fill:#00149a;fill-opacity:1;stroke-width:12.8813" /><path
           d="m 218.65124,68.512564 q 0,-1.43146 -0.54411,-2.385638 -0.54412,-0.954179 -1.46527,-1.601785 -0.88558,-0.681736 -2.04488,-1.056626 -1.15934,-0.408908 -2.35085,-0.681736 -1.19155,-0.306133 -2.3509,-0.511137 -1.15928,-0.238532 -2.07707,-0.545214 -0.8856,-0.340758 -1.42989,-0.783853 -0.54409,-0.477063 -0.54409,-1.22695 0,-0.988311 0.92103,-1.635915 0.95317,-0.681792 3.03356,-0.681792 1.05626,0 1.73897,0.170929 0.71494,0.135211 1.19155,0.442985 0.51225,0.306134 0.81793,0.783854 0.32209,0.477062 0.57967,1.124558 0.19347,0.477062 0.57969,0.715867 0.37373,0.202806 0.81798,0.202806 0.71487,0 1.33001,-0.442987 0.61181,-0.47706 0.61181,-1.261079 0,-0.340758 -0.22533,-0.783854 -0.19346,-0.442987 -0.54411,-0.886247 -0.34131,-0.477062 -0.71495,-0.852061 -0.37702,-0.40891 -0.71492,-0.681792 -0.85339,-0.647605 -2.18019,-1.056569 -1.33001,-0.408911 -3.27185,-0.408911 -3.47637,0 -5.41921,1.499667 -1.94187,1.499722 -1.94187,4.15802 0,1.840425 0.92104,2.896997 0.92097,1.022495 2.2832,1.601839 1.3622,0.545214 2.96596,0.852061 1.63592,0.273705 2.99812,0.613475 1.36221,0.340759 2.28325,0.920376 0.92103,0.579346 0.92103,1.738035 0,0.579343 -0.22533,1.124887 -0.22535,0.511686 -0.75033,0.954178 -0.47651,0.40891 -1.26241,0.681737 -0.78252,0.23853 -1.87421,0.23853 -2.38632,0 -3.68052,-0.988309 -1.26242,-0.98831 -1.84209,-2.4539 -0.19346,-0.511139 -0.57967,-0.749723 -0.37373,-0.23853 -0.78253,-0.23853 -0.64728,0 -1.22694,0.511685 -0.54412,0.477063 -0.54412,1.261083 0,0.47706 0.44462,1.397328 0.44464,0.920378 1.42982,1.874556 1.02409,0.920378 2.58915,1.635915 1.60054,0.681792 3.91951,0.681792 1.63596,0 3.13662,-0.306134 1.5007,-0.340758 2.6246,-1.05657 1.12391,-0.749724 1.80658,-1.908743 0.68271,-1.192764 0.68271,-2.896994 z"
           id="path2607"
           style="font-weight:500;font-size:1.05833px;font-family:RockoFLF;-inkscape-font-specification:'RockoFLF Medium';fill:#00149a;fill-opacity:1;stroke-width:12.8813" /></g></g></g></svg>
